<?xml version="1.0" encoding="UTF-8" standalone="no"?>
<svg width="500" height="50"
  xmlns="http://www.w3.org/2000/svg"
  xmlns:xlink="http://www.w3.org/1999/xlink" version="1.2" baseProfile="tiny">
  <desc>Created by HiQPdf</desc>
  <defs>
  </defs>
  <g fill="none" stroke="black" stroke-width="1" fill-rule="evenodd" stroke-linecap="square" stroke-linejoin="bevel">

    <g fill="#000000" fill-opacity="1" stroke="#000000" stroke-opacity="1" stroke-width="1" stroke-linecap="square" stroke-linejoin="miter" stroke-miterlimit="2" transform="matrix(1,0,0,1,0,0)">
    </g>

    <g fill="#000000" fill-opacity="1" stroke="#000000" stroke-opacity="1" stroke-width="1" stroke-linecap="square" stroke-linejoin="miter" stroke-miterlimit="2" transform="matrix(1,0,0,1,0,0)">
    </g>

    <g fill="#000000" fill-opacity="1" stroke="#000000" stroke-opacity="1" stroke-width="1" stroke-linecap="square" stroke-linejoin="miter" stroke-miterlimit="2" transform="matrix(1,0,0,1,0,0)">
    </g>

    <g fill="#ffcc99" fill-opacity="1" stroke="none" transform="matrix(1,0,0,1,0,0)">
      <path vector-effect="none" fill-rule="evenodd" d="M8,8 L443,8 L443,28 L8,28 L8,8"/>
    </g>

    <g fill="#ffcc99" fill-opacity="1" stroke="none" transform="matrix(1,0,0,1,0,0)">
      <path vector-effect="none" fill-rule="evenodd" d="M8,8 L443,8 L443,28 L8,28 L8,8"/>
    </g>

    <g fill="#000000" fill-opacity="1" stroke="#000000" stroke-opacity="1" stroke-width="1" stroke-linecap="square" stroke-linejoin="bevel" transform="matrix(1,0,0,1,0,0)">
      <text fill="#000000" fill-opacity="1" stroke="none" xml:space="preserve" x="8" y="23" font-family="Times New Roman" font-size="16" font-weight="400" font-style="normal"></text>
    </g>

    <g fill="#ff6600" fill-opacity="1" stroke="#ff6600" stroke-opacity="1" stroke-width="1" stroke-linecap="square" stroke-linejoin="bevel" transform="matrix(1,0,0,1,0,0)">
      <text fill="#ff6600" fill-opacity="1" stroke="none" xml:space="preserve" x="20" y="23" font-family="Verdana" font-size="12" font-weight="700" font-style="normal">Zach's Blurbs</text>
    </g>

    <g fill="#000000" fill-opacity="1" stroke="#000000" stroke-opacity="1" stroke-width="1" stroke-linecap="square" stroke-linejoin="miter" stroke-miterlimit="2" transform="matrix(1,0,0,1,0,0)">
    </g>

    <g fill="#000000" fill-opacity="1" stroke="#000000" stroke-opacity="1" stroke-width="1" stroke-linecap="square" stroke-linejoin="miter" stroke-miterlimit="2" transform="matrix(1,0,0,1,0,0)">
    </g>

    <g fill="#000000" fill-opacity="1" stroke="#000000" stroke-opacity="1" stroke-width="1" stroke-linecap="square" stroke-linejoin="miter" stroke-miterlimit="2" transform="matrix(1,0,0,1,0,0)">
    </g>
  </g>
</svg>
